<svg width="701" height="511" xmlns="http://www.w3.org/2000/svg"><g stroke="#1F6FFC" transform="translate(-173 3)" fill="none" fill-rule="evenodd"><path d="M88 497c-5.613 0-8-3.463-8-11V22c0-12.27 9.74-22 22-22h664c12.26 0 22 9.73 22 22v464c0 7.537-2.385 11-8 11H88z" stroke-width="5" fill="#FFF"/><path d="M36 506c-20.272 0-28.18-7.013-34-10-1.262-.64-2-1.858-2-3v-14h872v14c0 1.144-.74 2.36-2 3-5.82 2.987-13.728 10-34 10H36z" stroke-width="4" fill="#FFF"/><path d="M384 487c-4.88 0-7.273-5.835-8-8h119c-.727 2.165-3.12 8-8 8H384z" stroke-width="4" fill="#FFF"/><circle stroke-width="4" fill="#FFF" cx="434.5" cy="17.5" r="1.5"/><path stroke-width="4" d="M102 33h664c1.71 0 3 1.32 3 3.027v413.946c0 1.708-1.29 3.027-3 3.027H102c-1.71 0-3-1.32-3-3.027V36.027c0-1.706 1.29-3.027 3-3.027z"/></g></svg>