<svg width="232" height="40" xmlns="http://www.w3.org/2000/svg" xmlns:xlink="http://www.w3.org/1999/xlink"><defs><path id="a" d="M0 .156h46.538V32.12H0z"/></defs><g fill="none" fill-rule="evenodd"><path d="M29.03 33.918c-1.59 0-2.977-.226-4.16-.678-1.184-.452-2.17-1.092-2.956-1.921s-1.372-1.825-1.756-2.989c-.385-1.163-.578-2.452-.578-3.867 0-1.389.205-2.662.615-3.817.41-1.155 1.017-2.147 1.82-2.975.803-.83 1.802-1.473 2.999-1.934 1.196-.46 2.58-.69 4.153-.69 1.071 0 2.006.077 2.805.232.798.155 1.468.366 2.007.634.54.268.943.584 1.211.948.268.364.402.755.402 1.174 0 .301-.072.584-.214.847a2.057 2.057 0 0 1-.64.697 3.31 3.31 0 0 1-1.041.471c-.41.113-.887.17-1.43.17 0-.52-.063-.997-.189-1.432a2.97 2.97 0 0 0-.583-1.117 2.66 2.66 0 0 0-.998-.722c-.401-.172-.874-.258-1.418-.258-.937 0-1.734.172-2.39.515a4.14 4.14 0 0 0-1.606 1.507c-.414.661-.716 1.475-.904 2.442-.188.967-.282 2.07-.282 3.308 0 1.24.098 2.338.295 3.296.196.959.514 1.764.953 2.417a4.272 4.272 0 0 0 1.707 1.488c.698.34 1.554.509 2.566.509.318 0 .636-.013.954-.038.317-.025.627-.071.928-.138v-3.78c0-.686-.155-1.163-.464-1.43-.31-.269-.765-.403-1.368-.403h-.339v-1.356h8.081v1.356h-.338c-.26 0-.486.032-.678.095a1.03 1.03 0 0 0-.477.32c-.125.15-.218.35-.276.596a4.085 4.085 0 0 0-.088.923v4.219c-1.004.46-2.016.806-3.036 1.036-1.021.23-2.117.345-3.288.345m20.278-.251l-.565-1.82h-.126a4.5 4.5 0 0 1-.84 1.073 3.476 3.476 0 0 1-.966.628 4.122 4.122 0 0 1-1.086.295 8.94 8.94 0 0 1-1.173.075c-1.338 0-2.365-.414-3.08-1.243-.716-.829-1.073-2.11-1.073-3.842V23.07c0-.377-.034-.682-.1-.917a1.19 1.19 0 0 0-.314-.552 1.151 1.151 0 0 0-.546-.277 3.67 3.67 0 0 0-.797-.075h-.05V19.88h5.71v8.237c0 .553.03 1.05.093 1.494.063.444.17.823.32 1.137a1.8 1.8 0 0 0 .602.728c.251.172.565.257.942.257.41 0 .763-.09 1.06-.27.297-.18.54-.439.728-.778a4.01 4.01 0 0 0 .414-1.23 9.11 9.11 0 0 0 .132-1.627v-4.934c0-.377-.05-.674-.151-.891a1.17 1.17 0 0 0-.402-.497 1.348 1.348 0 0 0-.59-.213 5.502 5.502 0 0 0-.715-.044h-.075V19.88h5.835v10.8c0 .376.044.671.132.885.088.213.207.374.357.483.151.11.331.178.54.207.209.03.44.044.69.044h.213v1.369h-5.12zm13.828-1.821c.334 0 .654-.023.96-.069.305-.046.591-.102.86-.17v1.67a4.128 4.128 0 0 1-.547.214 7.24 7.24 0 0 1-.803.207 11.267 11.267 0 0 1-2.29.22c-.577 0-1.1-.07-1.568-.207a2.787 2.787 0 0 1-1.192-.69c-.326-.323-.577-.742-.753-1.257-.176-.514-.264-1.148-.264-1.902v-8.224h-1.932V20.32c.552 0 1.046-.109 1.48-.327.435-.217.783-.468 1.042-.753.527-.552.92-1.402 1.18-2.549h2.133v3.19h3.287v1.757h-3.287v7.96c0 .78.132 1.348.395 1.708.264.36.697.54 1.299.54m9.963-10.622c-.72 0-1.29.356-1.713 1.067-.422.712-.655 1.754-.696 3.127h4.442c0-.653-.038-1.24-.113-1.758-.075-.52-.195-.958-.358-1.318-.163-.36-.372-.637-.627-.829-.255-.193-.567-.289-.935-.289m.238 12.694c-1.087 0-2.047-.159-2.88-.477a5.48 5.48 0 0 1-2.089-1.381c-.56-.603-.983-1.342-1.267-2.216-.285-.875-.427-1.873-.427-2.995 0-1.205.142-2.264.427-3.177.284-.912.698-1.674 1.242-2.285a5.096 5.096 0 0 1 2.002-1.375c.79-.305 1.691-.458 2.704-.458.928 0 1.765.132 2.51.396a4.988 4.988 0 0 1 1.894 1.174c.519.519.916 1.163 1.192 1.933.276.77.414 1.666.414 2.687v1.319h-8.42c.026.862.12 1.602.283 2.222.163.62.389 1.13.678 1.532.288.401.64.698 1.054.891.414.193.888.289 1.424.289.443 0 .853-.052 1.23-.157a3.96 3.96 0 0 0 1.022-.44c.305-.188.573-.41.803-.665.23-.255.42-.53.571-.822.46.25.69.67.69 1.255 0 .369-.1.718-.301 1.049-.2.33-.51.621-.928.872-.419.251-.944.452-1.575.603-.632.15-1.383.226-2.253.226m17.568-.251v-8.463c0-.552-.036-1.044-.107-1.475-.071-.431-.188-.793-.351-1.086a1.741 1.741 0 0 0-.64-.672c-.264-.155-.584-.232-.96-.232-.427 0-.783.109-1.067.326a2.312 2.312 0 0 0-.684.873 4.667 4.667 0 0 0-.37 1.268 9.78 9.78 0 0 0-.113 1.513v4.91c0 .36.044.648.132.866.088.217.211.387.37.508.159.122.354.201.584.239.23.037.487.056.771.056h.076v1.369h-7.893v-1.369h.05c.293 0 .56-.019.803-.056a1.5 1.5 0 0 0 .634-.245c.18-.126.32-.306.42-.54.1-.234.15-.544.15-.93V22.92c0-.36-.043-.649-.13-.866a1.151 1.151 0 0 0-.377-.509 1.324 1.324 0 0 0-.584-.238 4.658 4.658 0 0 0-.765-.057h-.076v-1.37h5.396l.339 1.834h.125c.26-.486.534-.87.822-1.155.289-.285.596-.503.923-.653.326-.151.67-.247 1.035-.29.364-.041.746-.062 1.148-.062.66 0 1.255.096 1.782.289.527.193.972.49 1.336.891.364.402.642.915.835 1.539.192.623.288 1.37.288 2.24v5.965c0 .401.036.722.107.96.07.239.177.421.32.546.142.126.322.21.54.251.217.042.472.063.765.063h.075v1.369h-5.71zm15.471-12.192c-.51 0-.933.107-1.267.32-.334.214-.602.538-.803.973-.2.436-.343.982-.427 1.639a18.75 18.75 0 0 0-.125 2.316c0 .846.042 1.597.125 2.254.084.657.226 1.21.427 1.657.2.448.473.788.816 1.018.343.23.77.345 1.28.345.845 0 1.455-.456 1.832-1.369.376-.912.564-2.222.564-3.93 0-1.749-.188-3.057-.564-3.923-.377-.867-.996-1.3-1.858-1.3m6.375 5.248c0 1.248-.115 2.323-.345 3.227-.23.904-.567 1.652-1.01 2.242a4.006 4.006 0 0 1-1.65 1.305c-.657.28-1.412.421-2.265.421-.494 0-.941-.054-1.343-.163a3.906 3.906 0 0 1-1.939-1.18 4.94 4.94 0 0 1-.646-.917h-.238l-.715 2.009h-4.882v-1.369h.176c.243 0 .481-.02.715-.063.234-.041.443-.125.628-.25a1.34 1.34 0 0 0 .445-.54c.113-.235.17-.549.17-.942V17.206c0-.368-.055-.663-.164-.885a1.323 1.323 0 0 0-.439-.521 1.614 1.614 0 0 0-.646-.251 4.7 4.7 0 0 0-.784-.063h-.1V14.13h6.035v4.394c0 .269-.01.583-.032.942-.02.36-.044.7-.069 1.017-.033.377-.067.762-.1 1.155h.176a4.142 4.142 0 0 1 1.474-1.506c.615-.369 1.408-.553 2.378-.553.836 0 1.575.14 2.215.42.64.282 1.18.712 1.618 1.294.44.582.772 1.323.998 2.223.226.9.339 1.969.339 3.207m8.834-5.499c-.72 0-1.29.356-1.713 1.067-.422.712-.655 1.754-.697 3.127h4.442c0-.653-.037-1.24-.112-1.758-.076-.52-.195-.958-.358-1.318-.163-.36-.372-.637-.628-.829-.255-.193-.566-.289-.934-.289m.238 12.694c-1.087 0-2.047-.159-2.88-.477-.832-.318-1.529-.779-2.089-1.381-.56-.603-.983-1.342-1.267-2.216-.285-.875-.427-1.873-.427-2.995 0-1.205.142-2.264.427-3.177.284-.912.698-1.674 1.242-2.285a5.096 5.096 0 0 1 2.001-1.375c.79-.305 1.692-.458 2.704-.458.93 0 1.765.132 2.51.396a4.988 4.988 0 0 1 1.895 1.174c.518.519.916 1.163 1.192 1.933.276.77.414 1.666.414 2.687v1.319h-8.42c.025.862.12 1.602.282 2.222.164.62.39 1.13.678 1.532.289.401.64.698 1.054.891.414.193.889.289 1.424.289.444 0 .854-.052 1.23-.157a3.96 3.96 0 0 0 1.023-.44c.305-.188.573-.41.803-.665.23-.255.42-.53.57-.822.46.25.691.67.691 1.255 0 .369-.1.718-.301 1.049-.2.33-.51.621-.929.872-.418.251-.943.452-1.574.603-.632.15-1.383.226-2.253.226m15.898-.251h-8.582v-1.369h.075c.293 0 .56-.02.803-.063a1.45 1.45 0 0 0 .627-.257c.176-.13.312-.316.408-.559.096-.243.145-.565.145-.966v-7.459c0-.376-.044-.68-.132-.91a1.189 1.189 0 0 0-.377-.534 1.286 1.286 0 0 0-.583-.244 4.661 4.661 0 0 0-.765-.057h-.076V19.88h5.195l.515 2.01h.125c.167-.385.351-.722.552-1.011.201-.289.442-.53.722-.722.28-.193.61-.337.99-.433a5.62 5.62 0 0 1 1.363-.145c1.011 0 1.756.178 2.233.534.477.356.715.872.715 1.55 0 .787-.284 1.398-.853 1.833-.569.436-1.372.654-2.41.654 0-.352-.018-.662-.056-.93a1.952 1.952 0 0 0-.2-.665 1.002 1.002 0 0 0-.39-.402 1.222 1.222 0 0 0-.608-.138c-.301 0-.56.075-.778.226-.218.15-.402.345-.552.584-.15.239-.274.508-.37.81a7.138 7.138 0 0 0-.226.91c-.055.305-.09.596-.107.873a11.83 11.83 0 0 0-.025.715v4.445c0 .377.046.68.138.91.092.23.217.404.377.521.158.118.349.195.57.233.222.037.459.056.71.056h.828v1.369zm9.148-9.354c0 .452.032.86.094 1.224.063.364.166.676.308.935.142.26.326.46.552.603.226.142.506.213.84.213.343 0 .628-.068.854-.207.226-.138.406-.339.54-.603.133-.263.227-.581.282-.953.054-.373.081-.79.081-1.25 0-.477-.03-.91-.088-1.3a3.339 3.339 0 0 0-.294-.998 1.673 1.673 0 0 0-.546-.646c-.226-.155-.51-.233-.854-.233-.334 0-.615.08-.84.239a1.701 1.701 0 0 0-.546.665 3.52 3.52 0 0 0-.295 1.018 8.816 8.816 0 0 0-.088 1.293m-1.719 11.903c0 .711.257 1.236.772 1.575.514.34 1.265.509 2.252.509 1.506 0 2.602-.218 3.288-.653.686-.435 1.029-1.076 1.029-1.921 0-.544-.172-.925-.515-1.143-.343-.217-.861-.326-1.556-.326h-2.986c-.26 0-.523.023-.79.069a1.96 1.96 0 0 0-.735.282 1.64 1.64 0 0 0-.546.597c-.142.255-.213.592-.213 1.01m11.18-15.845c0 .193-.029.379-.087.559-.059.18-.157.337-.295.47a1.433 1.433 0 0 1-.565.32c-.238.08-.533.12-.885.12 0-.176-.027-.33-.081-.464a1.014 1.014 0 0 0-.22-.34.912.912 0 0 0-.314-.207.992.992 0 0 0-.363-.068c-.143 0-.295.029-.458.087a1.565 1.565 0 0 0-.383.189c.176.192.339.412.49.659.15.247.281.513.395.797.112.285.202.58.27.885.066.306.1.618.1.936 0 .644-.103 1.24-.308 1.789a3.725 3.725 0 0 1-.947 1.425c-.427.402-.966.716-1.619.942-.652.226-1.426.339-2.321.339a10.2 10.2 0 0 1-.352-.007l-.426-.012a6.196 6.196 0 0 1-.408-.025c-.13-.013-.228-.023-.295-.032a2.4 2.4 0 0 0-.333.22 1.856 1.856 0 0 0-.3.295c-.089.109-.16.23-.214.364a1.119 1.119 0 0 0-.082.427c0 .285.111.494.333.628.222.134.512.201.872.201h3.112c.853 0 1.59.09 2.209.27.619.18 1.13.437 1.537.772.405.335.705.747.897 1.237.192.49.288 1.04.288 1.65 0 .796-.15 1.505-.451 2.129-.301.624-.76 1.151-1.374 1.582-.615.431-1.389.762-2.322.992-.932.23-2.035.345-3.306.345-2.024 0-3.532-.303-4.524-.91-.991-.607-1.487-1.496-1.487-2.668 0-.92.297-1.626.891-2.116.594-.49 1.456-.78 2.585-.872a4.803 4.803 0 0 1-.69-.34 2.713 2.713 0 0 1-.602-.483 2.345 2.345 0 0 1-.427-.647 1.972 1.972 0 0 1-.163-.816c0-.284.057-.548.17-.79.112-.243.27-.476.47-.697.2-.222.441-.432.721-.628.28-.197.588-.391.923-.584a4.004 4.004 0 0 1-1.048-.559 3.6 3.6 0 0 1-.828-.86 4.256 4.256 0 0 1-.546-1.142 4.73 4.73 0 0 1-.201-1.42c0-1.506.437-2.676 1.311-3.509.874-.832 2.228-1.249 4.06-1.249.61 0 1.177.078 1.7.232.523.155.977.341 1.361.56.143-.151.3-.313.471-.484.171-.172.366-.329.584-.471.217-.143.46-.26.727-.352a2.73 2.73 0 0 1 .891-.138c.31 0 .58.04.81.12.23.08.422.186.577.32a1.343 1.343 0 0 1 .47 1.03m11.043 11.5c.627 0 1.185-.073 1.675-.22a5.593 5.593 0 0 0 1.311-.57 5.203 5.203 0 0 0 1.01-.792c.289-.293.542-.582.76-.866.133.1.24.255.32.464.079.21.119.423.119.64 0 .36-.097.74-.29 1.137-.191.398-.513.764-.965 1.099-.452.335-1.05.61-1.795.828-.744.218-1.664.327-2.76.327-1.49 0-2.79-.226-3.903-.678-1.112-.452-2.037-1.093-2.773-1.921-.736-.829-1.288-1.825-1.656-2.988-.368-1.164-.552-2.453-.552-3.867 0-1.39.188-2.662.565-3.818.376-1.155.934-2.146 1.675-2.975.74-.829 1.664-1.474 2.773-1.934 1.108-.46 2.39-.69 3.846-.69.987 0 1.846.077 2.578.232.732.155 1.341.366 1.826.634.485.268.85.584 1.092.948.242.364.364.755.364 1.174 0 .318-.07.613-.207.885a2.016 2.016 0 0 1-.615.71 3.12 3.12 0 0 1-1.01.47 5.11 5.11 0 0 1-1.38.17c0-.427-.047-.852-.139-1.275a3.457 3.457 0 0 0-.47-1.149 2.606 2.606 0 0 0-.872-.834c-.36-.214-.808-.32-1.343-.32-.812 0-1.497.171-2.058.514-.56.344-1.01.846-1.349 1.507-.338.661-.583 1.475-.734 2.442-.15.967-.226 2.07-.226 3.308 0 1.24.092 2.323.276 3.252.185.93.482 1.702.891 2.317a3.84 3.84 0 0 0 1.6 1.381c.657.305 1.462.458 2.416.458m6.988.427c.193 0 .396-.019.61-.056.213-.038.41-.115.59-.233a1.39 1.39 0 0 0 .451-.502c.121-.217.182-.51.182-.879V17.055c0-.343-.06-.617-.182-.822a1.356 1.356 0 0 0-.458-.477 1.602 1.602 0 0 0-.596-.22 3.89 3.89 0 0 0-.596-.05h-.301V14.13h6.035v16.498c0 .368.06.662.182.88.122.217.272.384.452.501.18.118.378.195.596.233.218.037.419.056.602.056h.302v1.369h-8.17v-1.369h.302zm13.503-5.575c0 .913.048 1.717.144 2.411.096.695.25 1.277.464 1.746.214.468.492.822.835 1.06.343.239.761.358 1.255.358.493 0 .91-.12 1.248-.358.339-.238.615-.592.828-1.06.214-.47.366-1.051.458-1.746a18.56 18.56 0 0 0 .138-2.41c0-.921-.048-1.727-.144-2.418-.096-.69-.251-1.266-.464-1.726-.214-.46-.492-.805-.835-1.036-.343-.23-.761-.345-1.255-.345-.493 0-.911.115-1.254.345-.343.23-.62.576-.829 1.036-.209.46-.36 1.036-.451 1.726a18.554 18.554 0 0 0-.138 2.417m9.348 0c0 2.42-.567 4.223-1.7 5.412-1.134 1.188-2.8 1.783-5 1.783-1.03 0-1.954-.148-2.774-.446a5.422 5.422 0 0 1-2.089-1.337c-.573-.594-1.012-1.343-1.317-2.248-.306-.904-.459-1.958-.459-3.164 0-2.418.567-4.218 1.7-5.398 1.134-1.18 2.805-1.77 5.014-1.77 1.029 0 1.95.146 2.767.438.815.294 1.51.737 2.083 1.332.572.594 1.012 1.341 1.317 2.24.305.9.458 1.953.458 3.158m12.586 6.944l-.565-1.82h-.126a4.5 4.5 0 0 1-.84 1.073 3.476 3.476 0 0 1-.966.628 4.118 4.118 0 0 1-1.086.295 8.94 8.94 0 0 1-1.173.075c-1.338 0-2.365-.414-3.08-1.243-.716-.829-1.073-2.11-1.073-3.842V23.07c0-.377-.034-.682-.1-.917a1.19 1.19 0 0 0-.314-.552 1.15 1.15 0 0 0-.546-.277 3.67 3.67 0 0 0-.797-.075h-.05V19.88h5.71v8.237c0 .553.03 1.05.093 1.494.063.444.17.823.32 1.137a1.8 1.8 0 0 0 .602.728c.251.172.565.257.942.257.41 0 .763-.09 1.06-.27.297-.18.54-.439.728-.778a4.01 4.01 0 0 0 .414-1.23 9.11 9.11 0 0 0 .131-1.627v-4.934c0-.377-.05-.674-.15-.891a1.17 1.17 0 0 0-.402-.497 1.348 1.348 0 0 0-.59-.213 5.502 5.502 0 0 0-.715-.044h-.075V19.88h5.835v10.8c0 .376.044.671.132.885.088.213.207.374.357.483.151.11.33.178.54.207.209.03.44.044.69.044h.213v1.369h-5.12zm13.288-1.67c.51 0 .935-.107 1.274-.32.339-.214.61-.538.816-.973.204-.436.349-.982.432-1.639.084-.657.126-1.43.126-2.316 0-.846-.042-1.597-.126-2.254-.083-.657-.228-1.21-.432-1.657-.206-.448-.477-.787-.816-1.018-.34-.23-.764-.345-1.274-.345-.426 0-.793.115-1.098.345-.305.23-.552.572-.74 1.024-.189.452-.326 1.006-.414 1.663a17.29 17.29 0 0 0-.132 2.267c0 1.749.182 3.057.546 3.923.364.867.976 1.3 1.838 1.3zm6.55-1.494c0 .393.059.707.176.941.117.235.274.415.47.54.197.126.423.21.678.251a5 5 0 0 0 .81.063h.1v1.369h-4.982l-.715-2.009h-.239a5.034 5.034 0 0 1-.658.941 3.782 3.782 0 0 1-.854.71 4.003 4.003 0 0 1-1.085.452 5.38 5.38 0 0 1-1.355.157c-.836 0-1.581-.14-2.234-.42a4.097 4.097 0 0 1-1.65-1.294c-.447-.582-.786-1.32-1.016-2.216-.23-.896-.345-1.959-.345-3.19 0-1.238.115-2.311.345-3.22.23-.908.567-1.657 1.01-2.247.443-.59.987-1.03 1.631-1.319.644-.288 1.38-.433 2.209-.433.485 0 .922.053 1.31.157.39.105.741.247 1.055.427.314.18.592.396.834.647.243.25.452.527.628.828h.175c-.033-.477-.066-.924-.1-1.343a25.64 25.64 0 0 0-.031-.54 61.126 61.126 0 0 0-.038-.521 9.808 9.808 0 0 1-.031-.735V17.08c0-.351-.057-.633-.17-.847a1.176 1.176 0 0 0-.451-.483 1.78 1.78 0 0 0-.66-.214 6.126 6.126 0 0 0-.802-.05h-.2V14.13h6.185v16.373z" fill="#1F6FFC"/><g transform="translate(0 .201)"><mask id="b" fill="#fff"><use xlink:href="#a"/></mask><path d="M15.052 32.12h-3.344C5.362 32.12 0 26.47 0 19.78 0 13.593 4.8 8.506 10.872 8.053 13.14 3.288 18.024.156 23.352.156c3.669 0 7.17 1.46 9.753 4.038a11.268 11.268 0 0 1 2.225-.221c5.635 0 10.447 4.21 11.194 9.793a1.607 1.607 0 1 1-3.184.426c-.534-3.993-3.977-7.005-8.01-7.005a8.09 8.09 0 0 0-2.3.334l-.99.294-.679-.782a10.598 10.598 0 0 0-8.01-3.663c-4.37 0-8.351 2.746-9.908 6.833l-.402 1.057-1.287-.027c-4.71 0-8.542 3.835-8.542 8.548 0 4.86 3.97 9.125 8.496 9.125h3.344a1.607 1.607 0 0 1 0 3.214" fill="#1F6FFC" mask="url(#b)"/></g></g></svg>