<svg width="162" height="28" xmlns="http://www.w3.org/2000/svg" xmlns:xlink="http://www.w3.org/1999/xlink"><defs><path id="a" d="M0 .109h32.496v22.375H0z"/></defs><g fill="none" fill-rule="evenodd"><path d="M20.27 23.743c-1.11 0-2.078-.159-2.904-.475-.827-.316-1.515-.765-2.064-1.345a5.502 5.502 0 0 1-1.226-2.092c-.27-.814-.404-1.716-.404-2.707 0-.972.144-1.863.43-2.671a5.677 5.677 0 0 1 1.27-2.083c.561-.58 1.259-1.032 2.094-1.354.836-.322 1.802-.483 2.9-.483.748 0 1.401.054 1.959.162.558.109 1.025.257 1.402.444.377.188.658.409.846.664.186.255.28.528.28.821 0 .211-.05.409-.15.594a1.444 1.444 0 0 1-.446.488c-.199.14-.441.25-.727.33a3.77 3.77 0 0 1-1 .118 3.61 3.61 0 0 0-.13-1.002 2.08 2.08 0 0 0-.408-.782 1.857 1.857 0 0 0-.697-.506 2.5 2.5 0 0 0-.99-.18c-.654 0-1.21.12-1.669.36a2.89 2.89 0 0 0-1.121 1.055c-.29.463-.5 1.033-.631 1.71a12.235 12.235 0 0 0-.197 2.315c0 .868.068 1.637.205 2.308.138.67.36 1.234.666 1.691.307.458.704.805 1.192 1.042s1.085.356 1.792.356c.222 0 .444-.009.666-.026.222-.018.438-.05.648-.097v-2.646c0-.48-.108-.814-.324-1.002-.216-.187-.534-.281-.955-.281h-.237v-.95h5.643v.95h-.236c-.182 0-.34.022-.474.066a.713.713 0 0 0-.333.224 1.005 1.005 0 0 0-.192.418 2.853 2.853 0 0 0-.062.646v2.953c-.7.322-1.407.564-2.12.725a10.39 10.39 0 0 1-2.296.242m14.16-.176l-.395-1.275h-.087a3.144 3.144 0 0 1-.587.752 2.44 2.44 0 0 1-.675.44 2.93 2.93 0 0 1-.758.206 6.228 6.228 0 0 1-.819.053c-.935 0-1.652-.29-2.151-.87-.5-.58-.75-1.477-.75-2.69v-4.034a2.41 2.41 0 0 0-.07-.642.834.834 0 0 0-.218-.386.803.803 0 0 0-.381-.194 2.556 2.556 0 0 0-.557-.053h-.035v-.958h3.987v5.766c0 .387.022.735.065 1.046.044.31.119.576.224.795.105.22.245.39.42.51.176.12.395.18.658.18a1.4 1.4 0 0 0 .74-.189c.207-.126.377-.307.508-.545.132-.237.228-.524.29-.861a6.52 6.52 0 0 0 .091-1.138v-3.454c0-.264-.035-.472-.105-.624a.819.819 0 0 0-.28-.347.94.94 0 0 0-.412-.15 3.832 3.832 0 0 0-.5-.03h-.052v-.959h4.074v7.559c0 .264.031.47.092.62a.76.76 0 0 0 .25.338.82.82 0 0 0 .377.145c.146.02.306.03.482.03h.149v.959H34.43zm9.655-1.275c.234 0 .457-.016.67-.048.214-.032.414-.072.601-.119v1.17c-.093.046-.22.096-.381.149-.161.052-.348.1-.561.145a7.85 7.85 0 0 1-1.6.154c-.402 0-.767-.049-1.094-.145a1.945 1.945 0 0 1-.833-.484 2.217 2.217 0 0 1-.525-.879c-.123-.36-.184-.804-.184-1.331v-5.757h-1.35v-.923c.386 0 .73-.076 1.034-.229a2.46 2.46 0 0 0 .728-.527c.367-.387.642-.981.823-1.784h1.49v2.232h2.295v1.23h-2.295v5.573c0 .545.092.943.276 1.195.184.252.486.378.906.378m6.958-7.435c-.503 0-.902.25-1.197.747-.294.498-.457 1.227-.486 2.188h3.102a8.58 8.58 0 0 0-.079-1.23 3.45 3.45 0 0 0-.25-.923 1.464 1.464 0 0 0-.438-.58 1.05 1.05 0 0 0-.652-.202m.166 8.886c-.76 0-1.43-.112-2.01-.334a3.818 3.818 0 0 1-1.46-.967 4.11 4.11 0 0 1-.885-1.551c-.198-.613-.298-1.311-.298-2.097 0-.843.1-1.585.298-2.223.199-.639.488-1.172.868-1.6.38-.427.845-.748 1.397-.962.552-.214 1.182-.321 1.888-.321.649 0 1.233.092 1.753.277.52.184.96.458 1.323.822.362.363.64.814.832 1.353.193.54.29 1.166.29 1.88v.924h-5.88c.018.603.083 1.122.197 1.555.114.434.272.791.474 1.073.2.28.446.489.735.624.29.135.621.202.995.202.31 0 .596-.037.859-.11.262-.073.5-.176.714-.308.213-.131.4-.287.56-.465.161-.18.294-.371.4-.576.32.176.481.469.481.879 0 .258-.07.502-.21.734-.14.231-.356.435-.648.61-.293.176-.66.317-1.1.422-.441.106-.966.159-1.573.159m12.267-.176v-5.924c0-.387-.025-.731-.075-1.033a2.346 2.346 0 0 0-.245-.76 1.218 1.218 0 0 0-.447-.47 1.298 1.298 0 0 0-.67-.163c-.298 0-.547.076-.745.229a1.618 1.618 0 0 0-.477.61c-.12.256-.206.551-.259.888-.052.337-.079.69-.079 1.06v3.436c0 .252.031.454.092.606a.821.821 0 0 0 .259.356c.11.085.246.14.407.167.16.027.34.04.54.04h.052v.958h-5.512v-.958h.035c.205 0 .392-.013.561-.04.17-.026.317-.083.442-.171a.857.857 0 0 0 .294-.378c.07-.164.105-.381.105-.65v-5.327c0-.252-.03-.454-.092-.606a.806.806 0 0 0-.263-.356.923.923 0 0 0-.407-.167 3.245 3.245 0 0 0-.535-.04h-.052v-.958h3.768l.236 1.284h.088c.18-.34.372-.61.574-.809.201-.2.416-.351.644-.457a2.35 2.35 0 0 1 .723-.202c.254-.03.52-.044.801-.044.462 0 .876.067 1.244.202.369.135.68.343.934.624.254.281.448.64.582 1.077.135.436.202.96.202 1.569v4.174c0 .282.025.506.074.673.05.167.124.294.224.382a.773.773 0 0 0 .377.176c.151.029.33.044.534.044h.053v.958h-3.987zm10.804-8.534c-.357 0-.652.074-.886.224-.233.15-.42.376-.56.68-.14.306-.24.688-.298 1.148-.059.46-.088 1-.088 1.621 0 .592.03 1.118.088 1.578.058.46.158.847.298 1.16.14.314.33.551.57.712.239.161.537.242.893.242.59 0 1.016-.32 1.28-.958.262-.639.393-1.556.393-2.751 0-1.225-.13-2.14-.394-2.747-.263-.606-.695-.91-1.297-.91m4.451 3.674c0 .873-.08 1.626-.24 2.26-.161.632-.396 1.155-.706 1.568a2.8 2.8 0 0 1-1.152.914c-.459.196-.986.295-1.581.295a3.57 3.57 0 0 1-.938-.115 2.73 2.73 0 0 1-1.354-.826 3.458 3.458 0 0 1-.451-.641h-.166l-.5 1.406h-3.408v-.958h.122c.17 0 .336-.015.5-.044.163-.03.31-.088.438-.176a.937.937 0 0 0 .31-.378c.08-.164.12-.384.12-.66v-9.307c0-.257-.039-.464-.115-.62a.925.925 0 0 0-.306-.364 1.125 1.125 0 0 0-.452-.176 3.273 3.273 0 0 0-.547-.044h-.07v-.949h4.214v3.076c0 .188-.007.408-.022.66-.014.251-.03.489-.048.711l-.07.809h.123c.257-.445.6-.797 1.03-1.055.429-.258.982-.387 1.66-.387.584 0 1.1.099 1.546.295a2.81 2.81 0 0 1 1.13.905c.307.408.54.926.697 1.556.158.63.236 1.378.236 2.245m6.169-3.849c-.502 0-.901.25-1.196.747-.295.498-.457 1.227-.486 2.188h3.101c0-.457-.026-.867-.078-1.23a3.45 3.45 0 0 0-.25-.923 1.464 1.464 0 0 0-.438-.58 1.05 1.05 0 0 0-.653-.202m.166 8.886c-.759 0-1.43-.112-2.01-.334a3.818 3.818 0 0 1-1.46-.967 4.11 4.11 0 0 1-.884-1.551c-.199-.613-.298-1.311-.298-2.097 0-.843.099-1.585.298-2.223.198-.639.487-1.172.867-1.6.38-.427.846-.748 1.398-.962.552-.214 1.181-.321 1.888-.321.648 0 1.232.092 1.752.277.52.184.961.458 1.323.822.362.363.64.814.833 1.353.192.54.289 1.166.289 1.88v.924h-5.88c.018.603.084 1.122.198 1.555.114.434.271.791.473 1.073.201.28.447.489.736.624s.62.202.994.202c.31 0 .596-.037.859-.11.263-.073.5-.176.714-.308.213-.131.4-.287.561-.465.16-.18.293-.371.399-.576.32.176.482.469.482.879 0 .258-.07.502-.21.734-.14.231-.357.435-.649.61a3.87 3.87 0 0 1-1.1.422c-.441.106-.965.159-1.573.159m11.102-.176h-5.993v-.958h.052c.205 0 .391-.015.561-.044.17-.03.316-.09.438-.18a.867.867 0 0 0 .285-.391c.067-.17.1-.396.1-.677v-5.221c0-.263-.03-.476-.091-.637a.832.832 0 0 0-.263-.374.897.897 0 0 0-.408-.171 3.247 3.247 0 0 0-.534-.04h-.053v-.958h3.628l.36 1.407h.087a4.13 4.13 0 0 1 .385-.708 1.967 1.967 0 0 1 1.196-.808c.266-.068.583-.101.951-.101.707 0 1.226.124 1.56.373.332.249.499.61.499 1.086 0 .55-.199.978-.596 1.283-.397.304-.958.457-1.682.457a4.61 4.61 0 0 0-.04-.65 1.369 1.369 0 0 0-.14-.466.7.7 0 0 0-.271-.282.852.852 0 0 0-.425-.096.929.929 0 0 0-.544.158c-.151.105-.28.242-.385.409a2.471 2.471 0 0 0-.259.566 5.369 5.369 0 0 0-.232 1.248c-.011.194-.017.36-.017.501v3.112c0 .263.032.476.096.637a.812.812 0 0 0 .263.365.91.91 0 0 0 .399.162c.154.027.32.04.495.04h.578v.958zm6.387-6.548c0 .316.022.602.066.857.044.255.116.473.215.655.099.181.228.322.385.421.158.1.354.15.587.15.24 0 .438-.048.596-.145a1.02 1.02 0 0 0 .377-.422 2.17 2.17 0 0 0 .197-.668c.038-.26.057-.552.057-.874 0-.334-.02-.638-.061-.91a2.342 2.342 0 0 0-.206-.699 1.17 1.17 0 0 0-.381-.453 1.03 1.03 0 0 0-.596-.162.993.993 0 0 0-.587.167 1.19 1.19 0 0 0-.381.466 2.441 2.441 0 0 0-.206.712 6.158 6.158 0 0 0-.062.905m-1.2 8.332c0 .498.18.866.539 1.103.36.237.884.356 1.573.356 1.051 0 1.816-.152 2.295-.457.48-.305.719-.753.719-1.345 0-.38-.12-.647-.36-.8-.239-.152-.601-.228-1.086-.228h-2.085c-.181 0-.365.016-.552.048a1.367 1.367 0 0 0-.513.198c-.155.1-.282.239-.381.417-.1.18-.149.415-.149.708m7.807-11.092c0 .135-.02.265-.061.391a.797.797 0 0 1-.206.33 1.02 1.02 0 0 1-.394.224 1.968 1.968 0 0 1-.618.083.859.859 0 0 0-.057-.325.71.71 0 0 0-.154-.237.637.637 0 0 0-.219-.145.691.691 0 0 0-.254-.048c-.1 0-.205.02-.32.061a1.087 1.087 0 0 0-.267.132c.123.135.237.289.342.461a3.932 3.932 0 0 1 .464 1.178 3.555 3.555 0 0 1-.144 1.907 2.608 2.608 0 0 1-.662.998 3.102 3.102 0 0 1-1.13.66c-.456.157-.996.236-1.621.236-.064 0-.146-.001-.245-.004l-.298-.009a4.316 4.316 0 0 1-.49-.04 1.675 1.675 0 0 0-.233.154c-.079.062-.149.13-.21.207a1.013 1.013 0 0 0-.15.255.785.785 0 0 0-.056.299c0 .199.077.345.232.44.155.093.358.14.609.14h2.173c.596 0 1.11.063 1.542.189.432.126.79.306 1.073.54.284.235.492.523.627.866.134.343.201.728.201 1.156 0 .556-.105 1.053-.315 1.49-.21.436-.53.805-.96 1.107-.429.302-.97.533-1.62.694-.652.161-1.421.242-2.31.242-1.413 0-2.466-.212-3.158-.637-.692-.425-1.038-1.048-1.038-1.868 0-.644.207-1.138.622-1.48.414-.344 1.016-.547 1.805-.612a3.35 3.35 0 0 1-.482-.237 1.895 1.895 0 0 1-.42-.338 1.642 1.642 0 0 1-.299-.453 1.383 1.383 0 0 1-.113-.571c0-.2.039-.384.118-.554.079-.17.188-.333.328-.488.14-.155.308-.302.504-.44a8.57 8.57 0 0 1 .644-.408 2.793 2.793 0 0 1-.731-.391 2.517 2.517 0 0 1-.579-.602 2.982 2.982 0 0 1-.38-.8 3.318 3.318 0 0 1-.141-.993c0-1.055.305-1.874.915-2.457.61-.583 1.556-.874 2.835-.874.426 0 .822.054 1.187.162.365.109.682.24.95.392.1-.106.21-.219.33-.339a2.323 2.323 0 0 1 .915-.576c.187-.064.395-.096.622-.096.216 0 .405.028.565.083.161.056.295.13.403.224a.94.94 0 0 1 .33.721m7.71 8.051a4.06 4.06 0 0 0 1.17-.154 3.9 3.9 0 0 0 .915-.4c.269-.164.504-.348.705-.554.202-.205.379-.407.53-.606.094.07.168.179.224.325.055.147.083.296.083.448 0 .252-.067.518-.201.796-.135.278-.36.535-.675.769-.316.234-.733.428-1.253.58-.52.152-1.162.228-1.928.228-1.04 0-1.948-.158-2.725-.474a5.125 5.125 0 0 1-1.936-1.345c-.514-.58-.9-1.277-1.157-2.092-.257-.814-.385-1.716-.385-2.707 0-.972.131-1.863.394-2.672a5.765 5.765 0 0 1 1.17-2.083 5.254 5.254 0 0 1 1.936-1.353c.774-.322 1.67-.483 2.686-.483.69 0 1.29.054 1.8.162.511.109.937.256 1.275.444.339.188.593.409.762.664.17.254.255.528.255.821a1.35 1.35 0 0 1-.574 1.117c-.19.14-.425.25-.706.33-.28.078-.601.118-.963.118a4.19 4.19 0 0 0-.097-.892 2.423 2.423 0 0 0-.328-.805 1.822 1.822 0 0 0-.61-.584c-.25-.15-.563-.224-.937-.224-.567 0-1.045.12-1.437.36-.391.24-.705.592-.942 1.055-.236.463-.407 1.033-.512 1.71a15.207 15.207 0 0 0-.158 2.315c0 .868.064 1.626.193 2.277.128.65.336 1.19.622 1.621.286.431.658.753 1.117.967.458.214 1.02.32 1.687.32m4.88.3c.134 0 .276-.013.425-.04a1.09 1.09 0 0 0 .412-.162.973.973 0 0 0 .315-.352c.085-.152.127-.357.127-.615v-9.501c0-.24-.042-.432-.127-.576a.948.948 0 0 0-.32-.334 1.117 1.117 0 0 0-.416-.154 2.71 2.71 0 0 0-.416-.035h-.21v-.949h4.214V21.44c0 .258.043.463.127.615a.97.97 0 0 0 .316.352c.125.082.264.136.416.162.152.027.292.04.42.04h.21v.958h-5.703v-.958h.21zm9.428-3.903c0 .64.034 1.202.1 1.688.068.486.176.893.325 1.222.149.328.343.575.583.742.24.167.531.25.876.25.344 0 .635-.083.872-.25.236-.167.429-.414.578-.742.149-.329.255-.736.32-1.222a13.02 13.02 0 0 0 .096-1.688c0-.644-.033-1.208-.1-1.692-.068-.483-.176-.886-.325-1.208-.149-.322-.343-.564-.582-.725-.24-.161-.532-.242-.877-.242-.344 0-.636.08-.876.242-.24.161-.432.403-.578.725-.146.322-.251.725-.316 1.208a13.001 13.001 0 0 0-.096 1.692m6.528 0c0 1.694-.396 2.956-1.188 3.788-.791.832-1.955 1.249-3.491 1.249-.719 0-1.364-.104-1.937-.313a3.785 3.785 0 0 1-1.459-.936c-.4-.416-.706-.94-.92-1.573-.213-.633-.32-1.37-.32-2.215 0-1.693.396-2.953 1.188-3.779.791-.826 1.958-1.24 3.5-1.24.719 0 1.363.103 1.932.308a3.75 3.75 0 0 1 1.455.932c.4.416.707.94.92 1.569.213.63.32 1.367.32 2.21m8.788 4.861l-.394-1.275h-.088a3.144 3.144 0 0 1-.587.752 2.44 2.44 0 0 1-.675.44 2.87 2.87 0 0 1-.758.206 6.228 6.228 0 0 1-.819.053c-.934 0-1.651-.29-2.15-.87-.5-.58-.75-1.477-.75-2.69v-4.034a2.41 2.41 0 0 0-.07-.642.834.834 0 0 0-.22-.386.802.802 0 0 0-.38-.194 2.556 2.556 0 0 0-.557-.053h-.035v-.958H143v5.766c0 .387.022.735.066 1.046.043.31.118.576.223.795.105.22.245.39.42.51.176.12.395.18.658.18a1.4 1.4 0 0 0 .74-.189c.208-.126.377-.307.508-.545.132-.237.228-.524.29-.861.06-.337.092-.716.092-1.138v-3.454c0-.264-.036-.472-.106-.624a.819.819 0 0 0-.28-.347.94.94 0 0 0-.412-.15 3.832 3.832 0 0 0-.5-.03h-.052v-.959h4.075v7.559c0 .264.03.47.092.62.06.149.144.262.25.338.104.076.23.125.376.145.146.02.307.03.482.03h.149v.959h-3.575zm9.279-1.169c.356 0 .653-.075.89-.224.236-.15.426-.377.569-.681.143-.305.244-.687.302-1.147.059-.46.088-1 .088-1.622 0-.592-.03-1.118-.088-1.578-.058-.46-.159-.846-.302-1.16a1.68 1.68 0 0 0-.57-.712c-.236-.16-.533-.241-.89-.241-.297 0-.553.08-.766.241-.213.162-.385.4-.517.717a4.671 4.671 0 0 0-.289 1.164c-.061.46-.092.989-.092 1.587 0 1.224.127 2.14.381 2.746.254.607.682.91 1.284.91zm4.574-1.046c0 .275.04.495.122.66a.93.93 0 0 0 .329.377c.137.088.295.147.473.176.178.03.367.044.565.044h.07v.958h-3.478l-.5-1.406h-.166a3.524 3.524 0 0 1-.46.659 2.642 2.642 0 0 1-.596.496 2.792 2.792 0 0 1-.758.317c-.28.073-.596.11-.946.11-.584 0-1.104-.099-1.56-.295a2.862 2.862 0 0 1-1.152-.905c-.313-.407-.55-.924-.71-1.551-.16-.627-.24-1.371-.24-2.233 0-.867.08-1.618.24-2.254.16-.636.396-1.16.706-1.573a2.88 2.88 0 0 1 1.139-.923c.45-.202.963-.304 1.542-.304.339 0 .644.037.915.11.272.074.518.173.737.3.218.125.413.276.582.452.17.176.316.369.438.58h.123a90.452 90.452 0 0 0-.07-.94 42.961 42.961 0 0 0-.048-.742 6.883 6.883 0 0 1-.022-.515v-.994c0-.246-.04-.443-.119-.593a.822.822 0 0 0-.315-.338 1.24 1.24 0 0 0-.46-.15 4.267 4.267 0 0 0-.56-.035h-.14v-.949h4.319v11.46z" fill="#9C9C9C"/><g transform="translate(0 .141)"><mask id="b" fill="#fff"><use xlink:href="#a"/></mask><path d="M10.51 22.484H8.177C3.744 22.484 0 18.528 0 13.846c0-4.331 3.352-7.893 7.592-8.21C9.175 2.301 12.586.11 16.306.11a9.626 9.626 0 0 1 6.81 2.827 7.85 7.85 0 0 1 1.554-.155c3.935 0 7.295 2.947 7.816 6.855a1.122 1.122 0 0 1-2.223.299C29.89 7.139 27.486 5.03 24.67 5.03c-.543 0-1.083.079-1.605.234l-.693.206-.473-.548a7.393 7.393 0 0 0-5.593-2.564c-3.052 0-5.832 1.922-6.919 4.783l-.28.74-.9-.019c-3.288 0-5.964 2.684-5.964 5.983 0 3.403 2.772 6.388 5.933 6.388h2.335c.619 0 1.121.504 1.121 1.125s-.502 1.125-1.121 1.125" fill="#9C9C9C" mask="url(#b)"/></g></g></svg>