<svg width="108" height="108" xmlns="http://www.w3.org/2000/svg"><g fill="#FFF"><path d="M54 108C24.177 108 0 83.823 0 54S24.177 0 54 0s54 24.177 54 54-24.177 54-54 54zm0-8c25.405 0 46-20.595 46-46S79.405 8 54 8 8 28.595 8 54s20.595 46 46 46z"/><path d="M70.75 55.3a2 2 0 0 0-.66-2.75L47.577 38.763a2 2 0 0 0-3.044 1.705v27.578a2 2 0 0 0 3.044 1.706L70.09 55.96a2 2 0 0 0 .66-.66zM51.757 76.574c-4.71 2.884-10.866 1.405-13.75-3.305a10 10 0 0 1-1.473-5.223V40.467c0-5.523 4.477-10 10-10a10 10 0 0 1 5.223 1.473l22.512 13.789c4.71 2.884 6.19 9.04 3.305 13.75a10 10 0 0 1-3.305 3.305L51.756 76.573z"/></g></svg>