<svg width="64" height="100" xmlns="http://www.w3.org/2000/svg"><g fill="none"><path d="M61.97 32h-6.943V7.5c0-4.136-3.361-7.5-7.493-7.5-4.131 0-7.492 3.364-7.492 7.5V32H23.958V7.5c0-4.136-3.36-7.5-7.492-7.5S8.973 3.364 8.973 7.5V32H2.03a2 2 0 0 0-1.998 2v31.124C.031 72.224 5.801 78 12.895 78h3.62v7a2 2 0 0 0 1.998 2h6.494v11a2 2 0 0 0 1.998 2h9.99a2 2 0 0 0 1.998-2V87h6.494a2 2 0 0 0 1.998-2v-7h3.62c7.093 0 12.864-5.776 12.864-12.876V34a2 2 0 0 0-1.998-2zM44.039 7.5c0-1.93 1.568-3.5 3.496-3.5a3.502 3.502 0 0 1 3.497 3.5V32h-6.993V7.5zm-31.069 0c0-1.93 1.569-3.5 3.497-3.5a3.502 3.502 0 0 1 3.496 3.5V32H12.97V7.5zM34.997 96h-5.994v-9h5.994v9zm8.492-13H20.51v-5h22.98v5zm7.616-9h-38.21c-4.89 0-8.868-3.982-8.868-8.876V45.348H32a2 2 0 0 0 0-4H4.027V36h55.946v5.348h-11.04a2 2 0 0 0 0 4h11.04v19.776c0 4.894-3.978 8.876-8.868 8.876z" fill="#9C9C9C"/><path d="M55.027 32V7.5c0-4.136-3.361-7.5-7.493-7.5-4.131 0-7.492 3.364-7.492 7.5V32H23.958V7.5c0-4.136-3.36-7.5-7.492-7.5S8.973 3.364 8.973 7.5V32h46.054zM44.037 7.5c0-1.93 1.57-3.5 3.497-3.5a3.502 3.502 0 0 1 3.497 3.5V32h-6.993V7.5zm-31.068 0c0-1.93 1.569-3.5 3.497-3.5a3.502 3.502 0 0 1 3.496 3.5V32H12.97V7.5z" fill="#1F6FFC"/><path d="M40.841 41.348h-.5a2 2 0 0 0 0 4h.5a2 2 0 0 0 0-4z" fill="#9C9C9C"/></g></svg>