<svg width="100" height="100" xmlns="http://www.w3.org/2000/svg"><g fill="none"><path d="M91.797 0H66.418c-4.523 0-8.203 3.68-8.203 8.203v8.398H42.773a1.953 1.953 0 0 0 0 3.906h34.57a4.302 4.302 0 0 1 4.298 4.297v41.61a1.997 1.997 0 0 0-.179-.008H3.906V24.804a4.302 4.302 0 0 1 4.297-4.297h17.123a1.953 1.953 0 0 0 0-3.906H8.203C3.68 16.601 0 20.281 0 24.804v48.634c0 4.523 3.68 8.203 8.203 8.203h24.812v6.64h-7.622a1.953 1.953 0 0 0-1.953 1.953v7.813c0 1.078.874 1.953 1.953 1.953h34.775c.847 0 1.566-.54 1.837-1.294A8.151 8.151 0 0 0 66.418 100h25.379c4.523 0 8.203-3.68 8.203-8.203V8.203C100 3.68 96.32 0 91.797 0zm-64.45 96.094v-3.907h30.867v3.907H27.346zm9.574-7.814v-6.64H48.64v6.64H36.92zm21.294 0h-5.669v-6.64h5.67v6.64zm-7.622-10.546H8.203a4.302 4.302 0 0 1-4.297-4.296v-3.126h77.556c.06 0 .12-.004.179-.009v3.135a4.302 4.302 0 0 1-4.297 4.296H50.593zm45.5 7.807l-19.727.01a1.953 1.953 0 0 0 .001 3.906h.001l19.726-.01v2.35a4.302 4.302 0 0 1-4.297 4.297H66.418a4.302 4.302 0 0 1-4.297-4.297V81.64h15.223c4.523 0 8.203-3.68 8.203-8.204V24.804c0-4.523-3.68-8.203-8.203-8.203H62.12V8.203a4.302 4.302 0 0 1 4.297-4.297h25.379a4.302 4.302 0 0 1 4.297 4.297v77.338z" fill="#9C9C9C"/><path d="M35.82 17.174a1.967 1.967 0 0 0-1.38-.572c-.514 0-1.018.209-1.381.572a1.968 1.968 0 0 0-.573 1.38c0 .514.21 1.018.573 1.382.365.363.867.572 1.38.572.514 0 1.018-.21 1.381-.572a1.96 1.96 0 0 0 .573-1.381 1.96 1.96 0 0 0-.573-1.381z" fill="#9C9C9C"/><path d="M61.402 46.093H23.121a1.953 1.953 0 0 0-1.953 1.953v12.5c0 1.079.874 1.954 1.953 1.954h38.281a1.953 1.953 0 0 0 1.953-1.954v-12.5a1.953 1.953 0 0 0-1.953-1.953zm-1.953 12.5H25.074V50h34.375v8.593z" fill="#1F6FFC"/><path d="M39.996 52.916a1.956 1.956 0 0 0-3.334 1.38c0 .515.207 1.018.572 1.382.364.363.865.572 1.381.572.514 0 1.018-.209 1.381-.572.363-.364.572-.867.572-1.381s-.209-1.018-.572-1.381zm7.275 0a1.956 1.956 0 0 0-3.334 1.38c0 .515.208 1.018.573 1.382.363.363.865.572 1.38.572.514 0 1.018-.209 1.381-.572.364-.364.573-.867.573-1.381s-.21-1.018-.573-1.381zm7.276 0a1.968 1.968 0 0 0-1.381-.572 1.96 1.96 0 0 0-1.38.572 1.96 1.96 0 0 0-.573 1.38c0 .515.207 1.018.572 1.382.363.363.865.572 1.381.572a1.97 1.97 0 0 0 1.38-.572c.364-.364.573-.867.573-1.381s-.209-1.018-.572-1.381zm-21.827 0a1.956 1.956 0 0 0-3.334 1.38c0 .515.208 1.018.573 1.382.363.363.865.572 1.38.572a1.97 1.97 0 0 0 1.382-.572c.363-.364.572-.867.572-1.381s-.209-1.018-.572-1.381zm28.682-27.079H23.121a1.953 1.953 0 0 0-1.953 1.953v12.5c0 1.079.874 1.953 1.953 1.953h38.281a1.953 1.953 0 0 0 1.953-1.953v-12.5a1.953 1.953 0 0 0-1.953-1.953zm-1.953 12.5H25.074v-8.594h34.375v8.594z" fill="#1F6FFC"/><path d="M39.996 32.658a1.966 1.966 0 0 0-1.38-.57c-.517 0-1.018.207-1.382.57a1.96 1.96 0 0 0-.572 1.381c0 .516.207 1.018.572 1.383.364.363.868.572 1.381.572.514 0 1.018-.209 1.381-.572.363-.365.572-.867.572-1.383 0-.514-.209-1.016-.572-1.38zm7.275 0a1.968 1.968 0 0 0-1.38-.572c-.516 0-1.018.209-1.381.572a1.96 1.96 0 0 0-.572 1.381c0 .516.207 1.018.572 1.383.363.363.865.57 1.38.57a1.97 1.97 0 0 0 1.381-.57c.364-.365.573-.87.573-1.383 0-.514-.21-1.016-.573-1.38zm7.276 0a1.966 1.966 0 0 0-1.381-.57c-.516 0-1.018.207-1.38.57a1.963 1.963 0 0 0-.573 1.381c0 .516.207 1.018.572 1.383.363.363.867.57 1.381.57a1.97 1.97 0 0 0 1.38-.57 1.97 1.97 0 0 0 .573-1.383c0-.514-.209-1.016-.572-1.38zm-21.827 0a1.966 1.966 0 0 0-1.38-.57c-.516 0-1.018.207-1.381.57a1.955 1.955 0 0 0 1.38 3.336 1.961 1.961 0 0 0 1.954-1.953c0-.516-.209-1.018-.572-1.383z" fill="#1F6FFC"/><path d="M80.156 11.12a1.967 1.967 0 0 0-1.38-.573c-.514 0-1.018.209-1.381.572a1.968 1.968 0 0 0-.573 1.381c0 .514.21 1.018.573 1.38.363.364.867.573 1.38.573.514 0 1.018-.209 1.381-.572a1.96 1.96 0 0 0 .573-1.381 1.96 1.96 0 0 0-.573-1.38zM68.943 85.553h-.03a1.953 1.953 0 0 0 0 3.906h.03a1.953 1.953 0 0 0 0-3.906z" fill="#9C9C9C"/></g></svg>