<svg width="100" height="100" xmlns="http://www.w3.org/2000/svg"><g fill="none"><path d="M28.013.192H12.45a1.946 1.946 0 0 0-1.946 1.946v15.565c0 1.074.871 1.945 1.946 1.945h15.564a1.946 1.946 0 0 0 1.946-1.945V2.138A1.946 1.946 0 0 0 28.013.192zm-1.945 15.565H14.394V4.084h11.674v11.673zM51.36.192H35.796a1.946 1.946 0 0 0-1.946 1.946v15.565c0 1.074.871 1.945 1.946 1.945H51.36a1.946 1.946 0 0 0 1.946-1.945V2.138A1.946 1.946 0 0 0 51.36.192zm-1.945 15.565H37.74V4.084h11.674v11.673zM74.707.192H59.143a1.946 1.946 0 0 0-1.946 1.946v15.565c0 1.074.872 1.945 1.946 1.945h15.564a1.946 1.946 0 0 0 1.946-1.945V2.138A1.946 1.946 0 0 0 74.707.192zm-1.945 15.565H61.088V4.084h11.674v11.673zm3.891 25.293V25.485a1.946 1.946 0 0 0-1.946-1.945H59.143a1.946 1.946 0 0 0-1.946 1.945v3.853c-8.617-4.19-18.907-3.833-27.238 1.076v-4.929a1.946 1.946 0 0 0-1.946-1.945H12.45a1.946 1.946 0 0 0-1.946 1.945V41.05c0 1.074.871 1.945 1.946 1.945h6.063c-4.991 10.669-3.089 23.79 5.709 32.588.65.65 1.324 1.26 2.017 1.835l-17.7 17.7a2.706 2.706 0 0 1-1.926.798 2.705 2.705 0 0 1-1.926-.798 2.727 2.727 0 0 1 0-3.852l7.819-7.819a1.946 1.946 0 0 0-2.752-2.751l-7.819 7.819a6.622 6.622 0 0 0 0 9.355 6.572 6.572 0 0 0 4.678 1.938 6.571 6.571 0 0 0 4.677-1.938l18.152-18.152a28.55 28.55 0 0 0 4.41 2.223v5.803c0 1.074.87 1.945 1.945 1.945H51.36a1.946 1.946 0 0 0 1.946-1.945v-5.085a28.645 28.645 0 0 0 3.891-1.552v6.637c0 1.074.871 1.945 1.946 1.945h15.564a1.946 1.946 0 0 0 1.946-1.945V72.179a1.946 1.946 0 0 0-1.946-1.945h-5.556a28.65 28.65 0 0 0 3.088-6.983 1.945 1.945 0 1 0-3.737-1.082 24.925 24.925 0 0 1-6.311 10.663c-9.71 9.71-25.51 9.71-35.22 0-9.709-9.71-9.709-25.509 0-35.219 9.71-9.71 25.51-9.71 35.22 0a24.853 24.853 0 0 1 6.582 11.68 1.946 1.946 0 0 0 3.78-.922 28.628 28.628 0 0 0-1.9-5.375h4.054a1.946 1.946 0 0 0 1.946-1.946zM61.088 78.819a28.844 28.844 0 0 0 5.212-4.694h6.462v11.673H61.088v-6.98zm-23.347 4.367a28.993 28.993 0 0 0 11.674.413v2.2H37.74v-2.613zM26.068 33.17a28.837 28.837 0 0 0-5.348 5.934h-6.326V27.431h11.674v5.74zm42.372 5.934a28.846 28.846 0 0 0-7.353-7.478V27.43h11.674v11.674h-4.32z" fill="#9C9C9C"/><path d="M72.559 49.27a1.946 1.946 0 0 1-3.786.023 24.853 24.853 0 0 0-6.582-11.68c-9.71-9.71-25.51-9.71-35.22 0-9.709 9.71-9.709 25.51 0 35.219 9.71 9.71 25.51 9.71 35.22 0a24.925 24.925 0 0 0 6.31-10.663 1.945 1.945 0 0 1 3.787.21c-3.18 12.444-14.484 21.645-27.942 21.645-3.703 0-7.243-.696-10.496-1.966v-.117a28.55 28.55 0 0 1-4.409-2.223L11.29 97.87a6.571 6.571 0 0 1-4.677 1.938 6.572 6.572 0 0 1-4.678-1.938 6.622 6.622 0 0 1 0-9.355l7.82-7.82a1.946 1.946 0 0 1 2.75 2.752l-7.818 7.819a2.727 2.727 0 0 0 0 3.852 2.705 2.705 0 0 0 1.926.798c.727 0 1.411-.283 1.926-.798l17.7-17.7a29.02 29.02 0 0 1-2.017-1.835c-8.798-8.798-10.7-21.92-5.71-32.588h-.264A28.924 28.924 0 0 1 29.959 30.3v.114a28.727 28.727 0 0 1 11.644-3.819 29.247 29.247 0 0 1 2.743-.128c13.873 0 25.457 9.777 28.213 22.803z" fill="#1F6FFC"/><path d="M98.054 23.54H82.49a1.946 1.946 0 0 0-1.946 1.945V41.05c0 1.074.872 1.945 1.946 1.945h15.564A1.946 1.946 0 0 0 100 41.05V25.485a1.946 1.946 0 0 0-1.946-1.946zM96.11 39.103H84.435V27.431H96.11v11.673zm1.944 7.784H82.49a1.946 1.946 0 0 0-1.946 1.945v15.565c0 1.074.872 1.945 1.946 1.945h15.564A1.946 1.946 0 0 0 100 64.397V48.832a1.946 1.946 0 0 0-1.946-1.945zM96.11 62.45H84.435V50.778H96.11V62.45zm1.944 7.784H82.49a1.946 1.946 0 0 0-1.946 1.945v15.565c0 1.074.872 1.945 1.946 1.945h15.564A1.946 1.946 0 0 0 100 87.744V72.179a1.946 1.946 0 0 0-1.946-1.945zM96.11 85.798H84.435V74.125H96.11v11.673z" fill="#9C9C9C"/><path d="M18.013 75.187a1.96 1.96 0 0 0-1.376-.57 1.96 1.96 0 0 0-1.375.57 1.96 1.96 0 0 0-.57 1.376c0 .513.208 1.013.57 1.375.362.362.864.57 1.375.57a1.96 1.96 0 0 0 1.376-.57 1.96 1.96 0 0 0 .57-1.375 1.96 1.96 0 0 0-.57-1.376zm53.417-21.91a1.946 1.946 0 0 0-1.945 1.945v.164a1.946 1.946 0 0 0 1.933 1.958h.013a1.946 1.946 0 0 0 1.945-1.933v-.189a1.946 1.946 0 0 0-1.945-1.945zM58.614 41.19c-7.737-7.738-20.327-7.738-28.065 0a19.715 19.715 0 0 0-5.812 14.033c0 5.3 2.064 10.284 5.812 14.032a19.715 19.715 0 0 0 14.033 5.813c5.3 0 10.284-2.064 14.032-5.813a19.715 19.715 0 0 0 5.813-14.032 19.713 19.713 0 0 0-5.813-14.033zm-28.62 20.503a15.91 15.91 0 0 1-1.366-6.47 15.9 15.9 0 0 1 1.367-6.47v12.94zm14.588 9.483a15.91 15.91 0 0 1-6.436-1.351h12.872a15.91 15.91 0 0 1-6.436 1.351zm7.981-5.242H33.886V47.256h18.677v18.678zm1.946-22.57h-20.6a15.906 15.906 0 0 1 10.673-4.088c3.989 0 7.975 1.487 11.056 4.453a1.933 1.933 0 0 0-1.129-.364zm1.945 22.514V45.31c0-.42-.135-.81-.362-1.128a15.841 15.841 0 0 1 4.444 11.04c0 3.974-1.444 7.724-4.082 10.656z" fill="#1F6FFC"/></g></svg>