<svg width="93" height="115" xmlns="http://www.w3.org/2000/svg"><g fill="none"><path d="M54.479 85.818h-41.25v-7.887c0-.928-.751-1.68-1.677-1.68s-1.677.752-1.677 1.68v8.29a2.96 2.96 0 0 0 2.952 2.96H22.84v10.565a.282.282 0 0 1-.282.282h-8.357v-1.665a3.707 3.707 0 0 0-3.698-3.708H3.83a3.707 3.707 0 0 0-3.7 3.708v6.692a3.707 3.707 0 0 0 3.699 3.708h6.673a3.707 3.707 0 0 0 3.698-3.708v-1.665h8.357a3.644 3.644 0 0 0 3.635-3.644V89.18h18.63v11.487h-1.66a3.707 3.707 0 0 0-3.698 3.708v6.692a3.707 3.707 0 0 0 3.698 3.708h6.674a3.707 3.707 0 0 0 3.698-3.708v-6.692a3.707 3.707 0 0 0-3.698-3.708h-1.66V89.181h6.302a1.68 1.68 0 0 0 1.677-1.681 1.68 1.68 0 0 0-1.677-1.682zm-43.632 19.237c0 .19-.154.346-.344.346H3.83a.346.346 0 0 1-.345-.346v-6.692c0-.19.154-.345.345-.345h6.673c.19 0 .344.155.344.345v6.692zm38.99-1.024c.19 0 .344.155.344.345v6.692c0 .19-.154.345-.345.345h-6.673a.346.346 0 0 1-.345-.345v-6.692c0-.19.155-.345.345-.345h6.673zm4.85-72.959h-33.76a1.68 1.68 0 0 0-1.677 1.682c0 .928.75 1.681 1.677 1.681h33.76a1.68 1.68 0 0 0 1.677-1.681 1.68 1.68 0 0 0-1.677-1.682zm7.093-.287a1.68 1.68 0 0 0-1.676 1.682v.183a1.678 1.678 0 0 0 3.353.001v-.184c0-.929-.75-1.682-1.676-1.682zm5.146 0c-.926 0-1.676.753-1.676 1.682v.183c0 .929.75 1.681 1.676 1.681.926 0 1.677-.752 1.677-1.68v-.184c0-.929-.75-1.682-1.677-1.682zm5.146 0c-.926 0-1.676.753-1.676 1.682v.183c0 .929.75 1.681 1.676 1.681.926 0 1.677-.752 1.677-1.68v-.184c0-.929-.75-1.682-1.677-1.682z" fill="#9C9C9C"/><path d="M89.17 6.013h-6.673A3.707 3.707 0 0 0 78.8 9.72v1.664h-8.358a3.644 3.644 0 0 0-3.635 3.645v10.565h-18.63V14.108h1.66a3.707 3.707 0 0 0 3.698-3.708V3.708A3.707 3.707 0 0 0 49.837 0h-6.674a3.707 3.707 0 0 0-3.698 3.708V10.4a3.707 3.707 0 0 0 3.698 3.708h1.66v11.487h-18.63V15.03c0-2.01-1.63-3.645-3.635-3.645h-8.357V9.721a3.707 3.707 0 0 0-3.698-3.708H3.83A3.707 3.707 0 0 0 .13 9.72v6.691a3.707 3.707 0 0 0 3.699 3.709h6.673a3.707 3.707 0 0 0 3.698-3.709v-1.664h8.357c.155 0 .282.127.282.282v10.565h-8.498c-2.463 0-4.467 2.01-4.467 4.479v40.994c0 .928.75 1.681 1.677 1.681a1.68 1.68 0 0 0 1.677-1.681V39.522H79.77v6.738c0 .928.751 1.68 1.677 1.68s1.677-.752 1.677-1.68V30.074c0-2.47-2.004-4.479-4.467-4.479H70.16V15.03c0-.155.127-.282.282-.282h8.357v1.664a3.707 3.707 0 0 0 3.698 3.709h6.673a3.707 3.707 0 0 0 3.699-3.709V9.721a3.707 3.707 0 0 0-3.698-3.708zm-78.323 10.4c0 .19-.154.345-.344.345H3.83a.346.346 0 0 1-.345-.346V9.721c0-.19.154-.346.345-.346h6.673c.19 0 .344.155.344.346v6.691zm32.317-5.668a.346.346 0 0 1-.345-.345V3.708c0-.19.154-.346.345-.346h6.673c.19 0 .345.155.345.346V10.4c0 .19-.155.345-.345.345h-6.673zm35.493 18.213c.614 0 1.113.5 1.113 1.116v6.085H13.23v-6.085c0-.616.499-1.116 1.113-1.116h64.315zm10.858-12.546c0 .19-.154.346-.345.346h-6.673a.345.345 0 0 1-.344-.346V9.721c0-.19.154-.346.344-.346h6.673c.19 0 .345.155.345.346v6.691zm-.345 78.243h-6.673a3.707 3.707 0 0 0-3.697 3.709v1.664h-8.358a.282.282 0 0 1-.282-.282V89.18h10.012a2.96 2.96 0 0 0 2.952-2.96V53.123c0-.928-.75-1.681-1.677-1.681-.926 0-1.676.753-1.676 1.681V85.82H61.324c-.926 0-1.677.752-1.677 1.681a1.68 1.68 0 0 0 1.677 1.681h5.483v10.565c0 2.01 1.63 3.645 3.635 3.645H78.8v1.664a3.707 3.707 0 0 0 3.697 3.708h6.674a3.707 3.707 0 0 0 3.698-3.708v-6.691a3.708 3.708 0 0 0-3.698-3.709zm.345 10.4c0 .19-.154.346-.345.346h-6.673a.345.345 0 0 1-.344-.346v-6.692c0-.19.154-.345.344-.345h6.673c.19 0 .345.155.345.345v6.692z" fill="#9C9C9C"/><path d="M25.304 62.1l6.27-6.288a1.685 1.685 0 0 0 0-2.378 1.673 1.673 0 0 0-2.37 0l-7.456 7.476a1.684 1.684 0 0 0 0 2.378l7.455 7.476a1.67 1.67 0 0 0 2.371 0 1.684 1.684 0 0 0 0-2.378l-6.27-6.287zm45.948-1.19l-7.455-7.476a1.673 1.673 0 0 0-2.371 0 1.684 1.684 0 0 0 0 2.378l6.27 6.287-6.27 6.287a1.685 1.685 0 0 0 0 2.378 1.67 1.67 0 0 0 2.37 0l7.456-7.476a1.684 1.684 0 0 0 0-2.378zm-26.314-6.777a1.674 1.674 0 0 0-2.27.691l-7.434 13.959a1.684 1.684 0 0 0 1.478 2.474c.598 0 1.178-.323 1.48-.89l7.435-13.958a1.684 1.684 0 0 0-.69-2.276zm1.088 13.406a1.68 1.68 0 0 0-1.677 1.681v.17c0 .928.751 1.681 1.677 1.681s1.677-.753 1.677-1.681v-.17a1.68 1.68 0 0 0-1.677-1.681zm5.461 0a1.68 1.68 0 0 0-1.677 1.681v.17c0 .928.751 1.681 1.677 1.681s1.677-.753 1.677-1.681v-.17c0-.928-.75-1.681-1.677-1.681zm5.461 0a1.68 1.68 0 0 0-1.677 1.681v.17c0 .928.751 1.681 1.677 1.681s1.677-.753 1.677-1.681v-.17a1.68 1.68 0 0 0-1.677-1.681z" fill="#1F6FFC"/></g></svg>